<svg width="512" height="512" viewBox="0 0 512 512" fill="none" xmlns="http://www.w3.org/2000/svg">
<path fill-rule="evenodd" clip-rule="evenodd" d="M418.793 175.056C424.174 182.444 425.384 190.806 422.425 200.139L366.94 376.306C364.385 384.602 359.24 391.569 351.506 397.208C343.771 402.847 335.533 405.667 326.79 405.667H140.563C130.206 405.667 120.219 402.199 110.602 395.264C100.984 388.329 94.2926 379.806 90.5264 369.694C87.2982 361.009 87.1637 352.778 90.1229 345C90.1229 344.481 90.3246 342.731 90.7282 339.75C91.1317 336.769 91.4007 334.37 91.5352 332.556C91.6697 331.519 91.468 330.125 90.9299 328.375C90.3919 326.625 90.1901 325.361 90.3246 324.583C90.5937 323.157 91.1317 321.796 91.9387 320.5C92.7458 319.204 93.8555 317.681 95.2678 315.931C96.6802 314.181 97.7898 312.657 98.5969 311.361C101.691 306.435 104.717 300.505 107.676 293.569C110.635 286.634 112.653 280.704 113.729 275.778C114.133 274.481 114.166 272.537 113.83 269.944C113.494 267.352 113.46 265.537 113.729 264.5C114.133 263.074 115.276 261.259 117.159 259.056C119.042 256.852 120.185 255.361 120.589 254.583C123.414 249.917 126.238 243.954 129.063 236.694C131.888 229.435 133.569 223.602 134.107 219.194C134.242 218.028 134.073 215.954 133.603 212.972C133.132 209.991 133.165 208.176 133.703 207.528C134.242 205.843 135.721 203.866 138.142 201.597C140.563 199.329 142.043 197.87 142.581 197.222C145.137 193.852 147.995 188.375 151.156 180.792C154.317 173.208 156.166 166.954 156.704 162.028C156.839 160.991 156.637 159.338 156.099 157.069C155.561 154.801 155.427 153.083 155.696 151.917C155.965 150.88 156.57 149.713 157.511 148.417C158.453 147.12 159.664 145.63 161.143 143.944C162.623 142.259 163.766 140.898 164.573 139.861C165.649 138.306 166.759 136.329 167.902 133.931C169.045 131.532 170.054 129.264 170.929 127.125C171.803 124.986 172.879 122.653 174.157 120.125C175.435 117.597 176.746 115.523 178.091 113.903C179.436 112.282 181.218 110.759 183.438 109.333C185.657 107.907 188.078 107.162 190.701 107.097C193.324 107.032 196.519 107.389 200.285 108.167L200.083 108.75C205.195 107.583 208.624 107 210.373 107H363.914C373.868 107 381.535 110.63 386.915 117.889C392.295 125.148 393.506 133.574 390.547 143.167L335.264 319.333C330.421 334.759 325.613 344.708 320.838 349.181C316.063 353.653 307.421 355.889 294.911 355.889H119.58C115.948 355.889 113.393 356.861 111.913 358.806C110.434 360.88 110.366 363.667 111.711 367.167C114.94 376.241 124.624 380.778 140.765 380.778H326.992C330.892 380.778 334.658 379.773 338.29 377.764C341.922 375.755 344.276 373.065 345.352 369.694L405.88 177.778C406.822 174.926 407.158 171.231 406.889 166.694C412.001 168.639 415.969 171.426 418.793 175.056ZM204.118 175.444C203.58 177.13 203.715 178.588 204.522 179.819C205.329 181.051 206.674 181.667 208.557 181.667H331.229C332.977 181.667 334.692 181.051 336.373 179.819C338.055 178.588 339.164 177.13 339.703 175.444L343.94 163C344.478 161.315 344.343 159.856 343.536 158.625C342.729 157.394 341.384 156.778 339.501 156.778H216.829C215.081 156.778 213.366 157.394 211.685 158.625C210.003 159.856 208.893 161.315 208.355 163L204.118 175.444ZM187.372 225.222C186.834 226.907 186.969 228.366 187.776 229.597C188.583 230.829 189.928 231.444 191.811 231.444H314.482C316.231 231.444 317.946 230.829 319.627 229.597C321.309 228.366 322.418 226.907 322.956 225.222L327.193 212.778C327.731 211.093 327.597 209.634 326.79 208.403C325.983 207.171 324.638 206.556 322.755 206.556H200.083C198.335 206.556 196.62 207.171 194.938 208.403C193.257 209.634 192.147 211.093 191.609 212.778L187.372 225.222Z" fill="white"/>
</svg>
