<svg width="512" height="512" viewBox="0 0 512 512" fill="none" xmlns="http://www.w3.org/2000/svg">
<path fill-rule="evenodd" clip-rule="evenodd" d="M297.885 108.804V183.596H207.952C196.843 183.596 187.806 192.752 187.806 204.008V251.689H178.462L154.585 294.494C153.398 296.63 151.162 297.949 148.742 297.949C146.322 297.949 144.086 296.63 142.899 294.494L119.022 251.689H89.7152C86.0035 251.689 83 248.643 83 244.885V108.804C83 105.047 86.0035 102 89.7152 102H291.17C294.882 102 297.885 105.047 297.885 108.804ZM129.285 217.669H164.225C167.937 217.669 170.94 214.622 170.94 210.865C170.94 207.107 167.937 204.061 164.225 204.061H129.285C125.573 204.061 122.57 207.107 122.57 210.865C122.57 214.622 125.573 217.669 129.285 217.669ZM129.285 183.649H164.225C167.937 183.649 170.94 180.602 170.94 176.845C170.94 173.087 167.937 170.041 164.225 170.041H129.285C125.573 170.041 122.57 173.087 122.57 176.845C122.57 180.602 125.573 183.649 129.285 183.649ZM122.57 142.825C122.57 146.582 125.573 149.629 129.285 149.629H229.448C233.16 149.629 236.164 146.582 236.164 142.825C236.164 139.067 233.16 136.02 229.448 136.02H129.285C125.573 136.02 122.57 139.067 122.57 142.825ZM220.622 213.971H422.077C425.789 213.971 428.792 217.017 428.792 220.775V356.856C428.792 360.614 425.789 363.66 422.077 363.66H386.055L362.179 406.465C360.992 408.601 358.755 409.92 356.336 409.92C353.916 409.92 351.68 408.601 350.493 406.465L326.616 363.66H220.622C216.911 363.66 213.907 360.614 213.907 356.856V220.775C213.907 217.017 216.911 213.971 220.622 213.971ZM260.192 329.64H382.508C386.219 329.64 389.223 326.593 389.223 322.836C389.223 319.078 386.219 316.032 382.508 316.032H260.192C256.48 316.032 253.477 319.078 253.477 322.836C253.477 326.593 256.48 329.64 260.192 329.64ZM260.192 295.62H382.508C386.219 295.62 389.223 292.574 389.223 288.816C389.223 285.059 386.219 282.012 382.508 282.012H260.192C256.48 282.012 253.477 285.059 253.477 288.816C253.477 292.574 256.48 295.62 260.192 295.62ZM282.344 261.6H382.507C386.219 261.6 389.223 258.553 389.223 254.796C389.223 251.038 386.219 247.992 382.507 247.992H282.344C278.632 247.992 275.629 251.038 275.629 254.796C275.629 258.553 278.632 261.6 282.344 261.6Z" fill="white"/>
</svg>
