<svg width="512" height="512" viewBox="0 0 512 512" fill="none" xmlns="http://www.w3.org/2000/svg">
<path fill-rule="evenodd" clip-rule="evenodd" d="M391.684 144.024C400.959 144.024 404.459 146.561 404.896 157.41L406.296 186.02H105.826C106.264 180.595 109.326 145.161 110.639 130.55C111.934 115.894 116.677 115.926 129.446 116.012C130.474 116.019 131.554 116.027 132.688 116.027H198.575C212.108 116.027 216.834 115.974 220.294 118.041C223.164 119.755 225.163 122.929 230.599 128.8C244.796 144.029 247.232 144.028 265.448 144.024C265.756 144.024 266.069 144.024 266.386 144.024H391.684ZM103.639 200.019H408.309C423.796 200.019 424.584 206.143 423.796 215.942L413.209 378.064C412.334 387.951 410.496 396 394.747 396H118.076C102.676 396 100.401 387.863 99.6138 378.064L88.2389 217.954C87.3639 208.068 88.1514 200.019 103.639 200.019Z" fill="white"/>
</svg>
